<svg xmlns="http://www.w3.org/2000/svg" viewBox="0 0 1000 500" width="1000" height="500">
  <defs>
    <style>
      .land { fill: #4a4a4a; }
      .water { fill: transparent; }
    </style>
  </defs>
  <rect width="100%" height="100%" class="water" />
  <path class="land" d="M499.9,1.6c-4.2,0.1-8.4,0.3-12.5,0.6C449,3.5,410.6,6.3,373.2,9.9c-23.4,2.3-46.7,4.6-70.1,6.9c-29.2,2.9-58.5,5.8-87.7,8.7c-29.2,2.9-58.5,5.8-87.7,8.7C71.3,42.9,34.9,46.5,0,50.1V316c14.6-1.5,29.2-2.9,43.8-4.4c29.2-2.9,58.5-5.8,87.7-8.8c29.2-2.9,58.5-5.8,87.7-8.8c29.2-2.9,58.5-5.8,87.7-8.8c29.2-2.9,58.5-5.8,87.7-8.8c29.2-2.9,58.5-5.8,87.7-8.8c29.2-2.9,58.5-5.8,87.7-8.8c14.6-1.5,29.2-2.9,43.8-4.4c14.6-1.5,29.2-2.9,43.8-4.4c14.6-1.5,29.2-2.9,43.8-4.4c14.6-1.5,29.2-2.9,43.8-4.4c14.6-1.5,29.2-2.9,43.8-4.4c14.6-1.5,29.2-2.9,43.8-4.4c-4.9-10.3-10.3-20.6-16.1-30.9c-5.8-10.3-12.1-20.6-18.9-30.9c-6.8-10.3-14.1-20.6-21.8-30.9c-7.7-10.3-15.9-20.6-24.6-30.9c-8.7-10.3-17.9-20.6-27.6-30.9c-9.7-10.3-19.9-20.6-30.6-30.9c-10.7-10.3-21.9-20.6-33.6-30.9c-11.7-10.3-23.9-20.6-36.6-30.9c-12.7-10.3-25.9-20.6-39.6-30.9c-13.7-10.3-27.9-20.6-42.6-30.9c-14.7-10.3-29.9-20.6-45.6-30.9c-15.7-10.3-31.9-20.6-48.6-30.9c-16.7-10.3-33.9-20.6-51.6-30.9c-17.7-10.3-35.9-20.6-54.6-30.9c-18.7-10.3-37.9-20.6-57.6-30.9c-19.7-10.3-39.9-20.6-60.6-30.9c-20.7-10.3-41.9-20.6-63.6-30.9c-21.7-10.3-43.9-20.6-66.6-30.9c-11.3-5.2-22.8-10.3-34.4-15.5c-11.6-5.2-23.3-10.3-35-15.5c-11.7-5.2-23.5-10.3-35.4-15.5c-11.9-5.2-23.9-10.3-35.9-15.5C533.3,3.4,516.6,2.3,500,1.6z M166.6,350.1c-14.6,1.5-29.2,2.9-43.8,4.4c-14.6,1.5-29.2,2.9-43.8,4.4c-14.6,1.5-29.2,2.9-43.8,4.4c-14.6,1.5-29.2,2.9-43.8,4.4v128.8h175c0-42.9,0-85.9,0-128.8C166.6,364.7,166.6,350.1,166.6,350.1z M833.3,350.1c14.6,1.5,29.2,2.9,43.8,4.4c14.6,1.5,29.2,2.9,43.8,4.4c14.6,1.5,29.2,2.9,43.8,4.4c14.6,1.5,29.2,2.9,43.8,4.4v128.8H833.3V350.1z"/>
</svg>
